# xmcd
#
# Track frame offsets: 
#        150
#        29986
#        39874
#        60045
#        81596
#        104202
#        118418
#        142979
#        171822
#        190979
#        210406
#        228994
#
# Disc length: 3325 seconds
#
# Revision: 2
# Processed by: cddbd v1.5.2PL0 Copyright (c) Steve Scherf et al.
# Submitted via: ExactAudioCopy v0.99pb4
#
DISCID=aa0cfb0c
DTITLE=Lars Danielsson - Lars Danielsson Signature Edition CD2
DYEAR=2010
DGENRE=Jazz
TTITLE0=Asta
TTITLE1=Bird Through The Wall
TTITLE2=From Above
TTITLE3=Les Coulisses
TTITLE4=Tarantella
TTITLE5=Both Sides Now
TTITLE6=Bibor No Azora
TTITLE7=The Madonna
TTITLE8=Praying
TTITLE9=Little Jump
TTITLE10=Hymn
TTITLE11=Far North
EXTD=YEAR: 2010
EXTT0=
EXTT1=
EXTT2=
EXTT3=
EXTT4=
EXTT5=
EXTT6=
EXTT7=
EXTT8=
EXTT9=
EXTT10=
EXTT11=
PLAYORDER=
